<?xml version="1.0" encoding="UTF-8"?>
<svg id="Layer_1" data-name="Layer 1" xmlns="http://www.w3.org/2000/svg" xmlns:xlink="http://www.w3.org/1999/xlink" viewBox="0 0 720 380.33">
  <defs>
    <style>
      .cls-1 {
        fill: none;
        stroke-linecap: round;
      }

      .cls-1, .cls-2, .cls-3, .cls-4, .cls-5 {
        stroke: #231f20;
        stroke-linejoin: round;
        stroke-width: 1.5px;
      }

      .cls-2 {
        fill: url(#linear-gradient);
      }

      .cls-6, .cls-7, .cls-8 {
        fill: #231f20;
      }

      .cls-7 {
        font-size: 14px;
      }

      .cls-7, .cls-8 {
        font-family: HelveticaLTStd-Cond, 'Helvetica LT Std';
      }

      .cls-8 {
        font-size: 18px;
      }

      .cls-3 {
        fill: url(#linear-gradient-2);
      }

      .cls-4 {
        fill: url(#linear-gradient-4);
      }

      .cls-5 {
        fill: url(#linear-gradient-3);
      }

      .cls-9 {
        fill: #e6e6e5;
      }

      .cls-10 {
        fill: #f2f2f2;
      }
    </style>
    <linearGradient id="linear-gradient" x1="509.47" y1="320.75" x2="526.86" y2="320.75" gradientUnits="userSpaceOnUse">
      <stop offset="0" stop-color="#fff"/>
      <stop offset="1" stop-color="#231f20"/>
    </linearGradient>
    <linearGradient id="linear-gradient-2" y1="298.22" x2="572.73" y2="298.22" xlink:href="#linear-gradient"/>
    <linearGradient id="linear-gradient-3" x1="504.13" y1="129.04" x2="514.92" y2="129.04" xlink:href="#linear-gradient"/>
    <linearGradient id="linear-gradient-4" x1="504.13" y1="108.27" x2="556.95" y2="108.27" xlink:href="#linear-gradient"/>
  </defs>
  <rect class="cls-10" y="184.03" width="720" height="196.3"/>
  <rect class="cls-9" width="720" height="184.03"/>
  <text class="cls-8" transform="translate(22.29 98.58)"><tspan x="0" y="0">Legs Same Size</tspan></text>
  <text class="cls-8" transform="translate(22.29 289.27)"><tspan x="0" y="0">Legs Different Size</tspan></text>
  <rect class="cls-1" x="290.03" y="247.18" width="14.66" height="78.66"/>
  <rect class="cls-1" x="243.7" y="325.84" width="107.49" height="14.66"/>
  <rect class="cls-1" x="447.9" y="326.03" width="111.26" height="14.14"/>
  <polygon class="cls-1" points="496.33 281.87 496.33 326.03 447.9 326.03 493.13 281.87 496.33 281.87"/>
  <polyline class="cls-1" points="572.74 281.85 604.39 281.87 589.91 296.01 559.17 326.03 525.84 326.03"/>
  <polygon class="cls-1" points="604.39 281.87 604.39 296.01 559.17 340.17 559.17 326.03 589.91 296.01 604.39 281.87"/>
  <rect class="cls-1" x="496.32" y="248.35" width="13.15" height="77.68"/>
  <polygon class="cls-1" points="555.34 204.19 555.34 270.41 543.68 281.87 529.3 296 509.47 315.47 509.47 248.35 542.18 216.86 555.34 204.19"/>
  <polygon class="cls-1" points="555.35 204.19 542.19 216.86 509.48 248.35 496.33 248.35 542.19 204.19 555.35 204.19"/>
  <polygon class="cls-2" points="526.86 326.02 509.47 326.02 509.47 315.48 526.86 326.02"/>
  <polyline class="cls-1" points="421.9 292.27 340.26 292.27 321.04 311.48"/>
  <polygon class="cls-6" points="327.13 312.59 309.88 322.56 319.84 305.3 327.13 312.59"/>
  <polyline class="cls-1" points="398.29 292.55 398.29 306.79 413 292.55"/>
  <text class="cls-7" transform="translate(276.36 359.27)"><tspan x="0" y="0">Symbol</tspan></text>
  <text class="cls-7" transform="translate(276.36 165.78)"><tspan x="0" y="0">Symbol</tspan></text>
  <text class="cls-7" transform="translate(344.07 306.3)"><tspan x="0" y="0">1/4 x 3/8</tspan></text>
  <text class="cls-7" transform="translate(597.47 249.33)"><tspan x="0" y="0">3/8</tspan></text>
  <text class="cls-7" transform="translate(619.9 317.03)"><tspan x="0" y="0">1/4</tspan></text>
  <line class="cls-1" x1="608.38" y1="281.87" x2="641.56" y2="281.87"/>
  <line class="cls-1" x1="561.34" y1="270.42" x2="641.56" y2="270.42"/>
  <line class="cls-1" x1="572.74" y1="276.57" x2="572.74" y2="233.88"/>
  <polygon class="cls-6" points="624.97 259.33 629.45 270.42 633.35 259.33 624.97 259.33"/>
  <line class="cls-1" x1="629.16" y1="259.33" x2="629.16" y2="248.35"/>
  <polygon class="cls-6" points="633.35 292.96 628.87 281.87 624.97 292.96 633.35 292.96"/>
  <line class="cls-1" x1="629.16" y1="292.96" x2="629.16" y2="303.94"/>
  <polygon class="cls-6" points="583.83 240.9 572.74 245.38 583.83 249.28 583.83 240.9"/>
  <line class="cls-1" x1="583.83" y1="245.09" x2="594.81" y2="245.09"/>
  <polygon class="cls-6" points="544.82 249.28 555.91 244.8 544.82 240.9 544.82 249.28"/>
  <line class="cls-1" x1="544.82" y1="245.09" x2="533.84" y2="245.09"/>
  <text class="cls-7" transform="translate(481.71 359.11)"><tspan x="0" y="0">As Built</tspan></text>
  <line class="cls-1" x1="304.69" y1="319.81" x2="321.55" y2="325.84"/>
  <polygon class="cls-3" points="572.73 281.85 526.86 326.02 509.47 315.48 509.47 315.47 529.3 296 543.68 281.87 555.34 270.41 572.73 281.85"/>
  <rect class="cls-1" x="290.39" y="61.22" width="13.51" height="72.51"/>
  <rect class="cls-1" x="244" y="133.73" width="107.19" height="13.51"/>
  <rect class="cls-1" x="447.38" y="133.9" width="102.56" height="13.03"/>
  <polygon class="cls-1" points="492.01 93.19 492.01 133.9 447.38 133.9 489.06 93.19 492.01 93.19"/>
  <polygon class="cls-1" points="591.62 93.19 578.27 106.23 549.94 133.9 514.92 133.9 543.5 106.23 556.95 93.19 591.62 93.19"/>
  <polygon class="cls-1" points="591.62 93.19 591.62 106.23 549.94 146.93 549.94 133.9 578.27 106.23 591.62 93.19"/>
  <rect class="cls-1" x="492.01" y="62.3" width="12.12" height="71.6"/>
  <polygon class="cls-1" points="546.42 21.59 546.42 82.64 535.67 93.19 522.41 106.23 504.13 124.17 504.13 62.3 534.28 33.27 546.42 21.59"/>
  <polygon class="cls-1" points="546.42 21.59 534.28 33.27 504.13 62.3 492.01 62.3 534.28 21.59 546.42 21.59"/>
  <polygon class="cls-5" points="514.92 133.9 504.13 133.9 504.13 124.17 514.92 133.9"/>
  <path class="cls-4" d="M556.95,93.19l-13.46,13.03-28.57,27.67-10.79-9.72,18.28-17.95,13.26-13.03,10.75-10.55c2.02,1.01,10.53,10.55,10.53,10.55Z"/>
  <polyline class="cls-1" points="197.65 105.81 262.39 105.81 280.1 123.52"/>
  <polygon class="cls-6" points="274.49 124.55 290.39 133.73 281.21 117.83 274.49 124.55"/>
  <polyline class="cls-1" points="246.09 105.63 232.53 92.51 232.53 105.63"/>
  <text class="cls-7" transform="translate(202.65 101.24)"><tspan x="0" y="0">5/16</tspan></text>
  <text class="cls-7" transform="translate(579.18 64.33)"><tspan x="0" y="0">5/16</tspan></text>
  <text class="cls-7" transform="translate(602.64 127.41)"><tspan x="0" y="0">5/16</tspan></text>
  <line class="cls-1" x1="595.3" y1="93.19" x2="625.88" y2="93.19"/>
  <line class="cls-1" x1="551.94" y1="82.64" x2="625.88" y2="82.64"/>
  <line class="cls-1" x1="556.94" y1="88.31" x2="556.94" y2="48.96"/>
  <polygon class="cls-6" points="610.59 72.41 614.72 82.64 618.31 72.41 610.59 72.41"/>
  <line class="cls-1" x1="614.45" y1="72.41" x2="614.45" y2="62.3"/>
  <polygon class="cls-6" points="618.31 103.42 614.18 93.19 610.59 103.42 618.31 103.42"/>
  <line class="cls-1" x1="614.45" y1="103.42" x2="614.45" y2="113.54"/>
  <polygon class="cls-6" points="567.17 55.43 556.94 59.56 567.17 63.16 567.17 55.43"/>
  <line class="cls-1" x1="567.17" y1="59.29" x2="577.29" y2="59.29"/>
  <polygon class="cls-6" points="536.71 63.16 546.94 59.03 536.71 55.43 536.71 63.16"/>
  <line class="cls-1" x1="536.71" y1="59.29" x2="526.59" y2="59.29"/>
  <text class="cls-7" transform="translate(476.88 165.78)"><tspan x="0" y="0">As Built</tspan></text>
</svg>
